<svg width="256" height="256" viewBox="0 0 256 256" fill="none" xmlns="http://www.w3.org/2000/svg">
<g clip-path="url(#clip0_4214_2027)">
<path d="M196 0H60C26.8629 0 0 26.8629 0 60V196C0 229.137 26.8629 256 60 256H196C229.137 256 256 229.137 256 196V60C256 26.8629 229.137 0 196 0Z" fill="#292929"/>
<path d="M77.3325 156.5C77.3325 161.539 79.3343 166.372 82.8975 169.935C86.4607 173.498 91.2934 175.5 96.3325 175.5C96.3325 179.699 98.0007 183.727 100.97 186.696C103.939 189.665 107.967 191.333 112.166 191.333C116.365 191.333 120.392 189.665 123.362 186.696C126.331 183.727 127.999 179.699 127.999 175.5C127.999 179.699 129.667 183.727 132.637 186.696C135.606 189.665 139.633 191.333 143.833 191.333C148.032 191.333 152.059 189.665 155.028 186.696C157.998 183.727 159.666 179.699 159.666 175.5C163.034 175.5 166.342 174.605 169.251 172.906C172.159 171.207 174.564 168.766 176.218 165.831C177.872 162.897 178.717 159.576 178.665 156.208C178.613 152.84 177.667 149.546 175.924 146.664C180.258 145.827 184.167 143.506 186.977 140.101C189.787 136.696 191.324 132.418 191.324 128.003C191.324 123.588 189.787 119.311 186.977 115.905C184.167 112.5 180.258 110.18 175.924 109.342C177.669 106.46 178.616 103.166 178.669 99.7966C178.722 96.4277 177.877 93.1054 176.223 90.1702C174.568 87.2351 172.163 84.7927 169.254 83.0934C166.344 81.3941 163.035 80.4991 159.666 80.5C159.666 76.3008 157.998 72.2735 155.028 69.3042C152.059 66.3348 148.032 64.6667 143.833 64.6667C139.633 64.6667 135.606 66.3348 132.637 69.3042C129.667 72.2735 127.999 76.3008 127.999 80.5C127.999 76.3008 126.331 72.2735 123.362 69.3042C120.392 66.3348 116.365 64.6667 112.166 64.6667C107.967 64.6667 103.939 66.3348 100.97 69.3042C98.0007 72.2735 96.3325 76.3008 96.3325 80.5C92.9642 80.4997 89.6562 81.3949 86.7477 83.0939C83.8391 84.7928 81.4345 87.2345 79.7802 90.1687C78.1259 93.1028 77.2814 96.4241 77.3332 99.7921C77.385 103.16 78.3312 106.454 80.0749 109.336C75.74 110.173 71.8319 112.494 69.0216 115.899C66.2114 119.304 64.6743 123.582 64.6743 127.997C64.6743 132.412 66.2114 136.689 69.0216 140.095C71.8319 143.5 75.74 145.82 80.0749 146.658C78.2793 149.627 77.3309 153.03 77.3325 156.5Z" stroke="white" stroke-width="9.5" stroke-linecap="round" stroke-linejoin="round"/>
<path d="M99.5 143.833L111.166 108.835C111.459 107.962 112.019 107.203 112.766 106.665C113.514 106.127 114.412 105.837 115.333 105.837C116.255 105.837 117.152 106.127 117.9 106.665C118.648 107.203 119.208 107.962 119.501 108.835L131.167 143.833M150.167 105.833V143.833M105.833 131.167H124.833" stroke="white" stroke-width="9.5" stroke-linecap="round" stroke-linejoin="round"/>
</g>
<defs>
<clipPath id="clip0_4214_2027">
<rect width="256" height="256" fill="white"/>
</clipPath>
</defs>
</svg>
